# xmcd
#
# Track frame offsets:
#        150
#        44685
#        68917
#        92057
#        127525
#        149507
#        169377
#        188682
#        225825
#
# Disc length: 3357 seconds
#
# Revision: 3
# Processed by: cddbd v1.5.1PL0 Copyright (c) Steve Scherf et al.
# Submitted via: ExactAudioCopy v0.95a5
#
DISCID=740d1b09
DTITLE=Chet Baker - Candy
DYEAR=1985
DGENRE=Jazz
TTITLE0=Love For Sale
TTITLE1=Nardis
TTITLE2=Candy
TTITLE3=Bye, Bye Blackbird
TTITLE4=Sad Walk
TTITLE5=Tempus Fugit
TTITLE6=Red's Blues
TTITLE7=Red Michell reminiscing with Chet Baker
TTITLE8=My Romance
EXTD=
EXTT0=
EXTT1=
EXTT2=
EXTT3=
EXTT4=
EXTT5=
EXTT6=
EXTT7=
EXTT8=
PLAYORDER=
